<svg width="18" height="14" viewBox="0 0 18 14" fill="none" xmlns="http://www.w3.org/2000/svg">
<path d="M10.748 0.593489C10.5169 0.824628 10.4059 1.10392 10.4152 1.43137C10.4252 1.75882 10.5457 2.03811 10.7769 2.26925L14.0417 5.5341L1.1557 5.5341C0.828252 5.5341 0.553581 5.64504 0.331687 5.86694C0.110563 6.08806 1.18812e-06 6.36235 1.13066e-06 6.68979C1.07319e-06 7.01724 0.110563 7.29191 0.331687 7.51381C0.553581 7.73493 0.828251 7.84549 1.1557 7.84549L14.0417 7.8455L10.748 11.1392C10.5169 11.3704 10.4013 11.645 10.4013 11.9632C10.4013 12.2807 10.5169 12.555 10.748 12.7861C10.9791 13.0172 11.2538 13.1328 11.572 13.1328C11.8894 13.1328 12.1637 13.0172 12.3949 12.7861L17.6822 7.49879C17.7978 7.38322 17.8798 7.25802 17.9283 7.12318C17.9761 6.98835 18 6.84389 18 6.6898C18 6.5357 17.9761 6.39124 17.9283 6.25641C17.8798 6.12158 17.7978 5.99638 17.6822 5.88081L12.366 0.564596C12.1541 0.352719 11.8894 0.246778 11.572 0.246778C11.2538 0.246778 10.9791 0.362349 10.748 0.593489Z" fill="#121D64"/>
</svg>
